@startuml
title __Zustandsdiagramm Parkhaus-Ticket__
    [*] --> Anfordern
    Anfordern --> Drucken : Tageskunden/Kurzeitparker
    Anfordern --> DauerTicket : Firmen-/Dauerkunden
    Drucken --> AktiveTickets
    DauerTicket --> AktiveTickets
    AktiveTickets -right-> Bezahlt : bezahlen/Status Dauerparker prüfen
    AktiveTickets -down-> ManuelleBearbeitung : Ticket verloren
    ManuelleBearbeitung --> Bezahlt : Gebühren bezahlt
    Bezahlt --> [*] : Ticket freigeben und löschen
@enduml